<svg width="600" height="600" xmlns="http://www.w3.org/2000/svg" version="1.1">
 <title id="title3044">Noteasy icon</title>

 <metadata>image/svg+xmlOpenclipartSixteenth Note (Stem Facing Up)2010-10-28T16:49:49a single stem facing up sixteenth notehttp://openclipart.org/detail/92959/sixteenth-note-(stem-facing-up)-by-jaschonjaschonblack and whiteclip artclipartflagmusicmusic notemusical notationsemiquaversixteenthsoundstaff</metadata>
 <g stroke="null">
  <title>Layer 1</title>
  <ellipse stroke="#b00b79" ry="293" rx="293" id="svg_4" cy="300.98161" cx="300.20724" stroke-width="5.9241" fill="#b00b79"/>
  <g stroke="null" id="layer1">
   <path stroke="#b00b79" fill="#ffffff" stroke-width="5.9241" stroke-linecap="round" fill-rule="evenodd" d="m413.94073,35.31038c-26.9352,4.76852 -29.3507,46.45194 -37.15458,71.80752c-26.52884,94.89504 -46.85144,187.23134 -74.86958,281.70835c-8.53069,31.18692 -35.85541,13.8101 -53.38191,2.78326c-39.91293,-16.41592 -88.09781,-11.60762 -124.79576,11.88201c-28.7289,18.84843 -50.60764,60.08008 -31.90949,92.88408c16.6053,28.72452 50.53924,42.14028 81.90655,45.07307c34.14983,1.20645 68.71252,-8.57789 98.93003,-24.85968c23.36745,-12.40044 34.0358,-37.12225 41.65387,-62.60731c10.67891,-35.32631 18.61313,-71.62144 30.70589,-106.42187c6.91963,-25.94922 14.50361,-66.52762 42.03387,-46.07983c17.51632,21.41039 31.26373,47.47461 38.00412,74.76257c4.73028,30.0527 6.05609,62.30299 -6.19053,91.00289c-9.05382,22.97907 18.41421,23.3463 22.62471,4.29581c25.53953,-38.93301 27.05561,-90.73143 7.82688,-132.17124c-18.04989,-49.26277 -52.41594,-91.92962 -59.2975,-145.35678c-5.38107,-32.67566 30.90238,-42.27081 45.15953,-13.20591c15.65926,27.0755 31.24918,55.94158 30.15096,88.64948c2.29333,23.35086 -2.25163,46.70797 -10.18261,68.6123c3.36377,33.15402 29.35867,-3.64385 33.20556,-18.59191c17.27567,-37.39618 13.89858,-81.86882 -3.2666,-118.23803c-17.89873,-47.2025 -50.57206,-88.46899 -57.36782,-139.86857c-3.19893,-8.91155 -2.28525,-23.73197 -13.78178,-26.0535l-0.00381,-0.00671z" stroke-linejoin="round" id="path3"/>
  </g>
 </g>
</svg>